<?xml version="1.0" encoding="utf-8"?>
<!-- Generator: Adobe Illustrator 26.0.1, SVG Export Plug-In . SVG Version: 6.00 Build 0)  -->
<svg version="1.1" id="Layer_1" xmlns="http://www.w3.org/2000/svg" xmlns:xlink="http://www.w3.org/1999/xlink" x="0px" y="0px"
	 viewBox="0 0 191.14 123.62" style="enable-background:new 0 0 191.14 123.62;" xml:space="preserve">
<style type="text/css">
	.st0{fill:#4E5150;}
	.st1{font-family:'GillSans';}
	.st2{font-size:27px;}
	.st3{fill:#5D6462;}
	.st4{fill:#383A39;}
	.st5{fill:#6E7472;}
	.st6{fill:#888988;}
	.st7{fill:#FFFFFF;}
	.st8{fill:#B5B5B6;}
	.st9{fill:#4F4F4F;}
	.st10{fill:#353535;}
	.st11{fill:#787878;}
	.st12{fill:#FFFFFF;stroke:#D1D3D4;stroke-width:0.25;stroke-miterlimit:10;}
	.st13{fill:#D1D3D4;}
	.st14{fill:none;stroke:#4E5150;stroke-width:0.25;stroke-miterlimit:10;}
</style>
<text transform="matrix(1 0 0 1 25.7981 44.1017)"><tspan x="0" y="0" class="st0 st1 st2">M</tspan><tspan x="0.98" y="23.4" class="st0 st1 st2">C</tspan><tspan x="0.98" y="46.8" class="st0 st1 st2">C</tspan></text>
<g>
	<g>
		<path class="st3" d="M77.72,95.14c0,0-3.47,3.06-1.97,5.72c1.5,2.67,5.67,2.92,10,2.92c4.33,0,8.17-1.42,10.17-0.92
			s6,1.67,4.5-1.67c-1.5-3.33-4.83-5.5-7.5-4.83c-2.67,0.67-8.17,0.67-8.67-2.17C83.75,91.36,77.72,95.14,77.72,95.14z"/>
		<path class="st4" d="M66.19,64.9c0.07,0.25,0.3,0.22,0.35,0.34c0.32,0.76,0.35,2.6,0.99,3.01c0.46,0.28,0.43-0.37,0.66,0.55
			c0.19,0.72,0,1.63,0.07,2.37c0.42,0.06,0.5-0.34,0.92-0.21c0.05,0.53-0.41,1.08-0.2,1.56c0.31,0.06,0.62,0.06,0.93,0.01
			c0.18,0.01,0.29,0.1,0.34,0.27c0.76,0.13,1.54-0.06,2.3,0.11c-0.09,0.61-0.42,1.04,0.15,1.47c0.51,0.38,1.25,0.08,1.83,0.18
			c0.33,0.85-0.6,1.54-0.7,2.33c-0.09,0.75,0.28,1.53,0.35,2.28c0.05,0.45,0.08,0.94,0.05,1.41c-0.03,0.86-0.9,1.99-0.58,2.78
			c0.29-0.08,0.58-0.1,0.88-0.06c0.17,1.1-1.05,2.12-0.61,3.24c0.36-0.03,0.57-0.29,0.92-0.37c0.01,1.14-0.55,2.27-0.25,3.41
			c0.21-0.05,0.4-0.14,0.56-0.27c0.28,0.6,0.03,1.6,0.04,2.24c0.03,1.16-0.09,3.27,0.69,4.21c0.36-0.17,0.35-0.52,0.6-0.8
			c0.21,0.64-0.27,1.19,0.61,1.32c0.36,0.05,0.67-0.31,0.99-0.56c0.25,0.37,0.54,0.7,0.87,0.94c-0.1,0.61-0.24,1.28,0.1,1.54
			c0.49,0.37,1.06-0.38,1.42-0.51c0.65-0.22,0.93-0.14,1.55-0.53c0.08-0.05,0.18-0.13,0.28-0.21c0.48-0.23,0.97-0.59,1.45-1.06
			c0.16-0.06,0.32-0.09,0.48-0.06c0.55,0.1,0.54,0.58,0.98,0.77c0.7-1.13,0.33-2.6,1.01-3.8c0.47-0.02,0.57,1.02,0.92,1.33
			c0.13-0.64,0.32-1.27,0.47-1.9c0.11-0.47,0.44-0.9,0.53-1.37c0.07-0.34,0-0.64,0.05-0.97c0.33-2.05,1.03-4.01,1.6-5.99
			c0.01-0.03,0.02-0.06,0.02-0.09c0.79-2.56,1.41-5.21,1.8-7.71c0.14-0.39,0.26-0.79,0.27-1.22c0-0.07,0.01-0.15,0.01-0.22
			c-0.12,0.08-0.24,0.14-0.37,0.18c-0.5,0.15-0.82,0.06-1.28-0.04c-0.66-0.14-1.16-0.28-1.88-0.27c-0.47,0.01-0.99,0.12-1.44-0.04
			c-0.03-0.19-0.06-0.37-0.08-0.56c-1.54-0.47-3.39,0.34-4.93-0.09c-0.09-0.43,0.01-0.83-0.07-1.26c-0.71-0.25-1.54,0.15-2.26-0.09
			c-0.19-0.94,0.2-1.15-0.87-1.61c-1.41-0.62-0.25-0.98-0.87-1.95c-0.5-0.77-2.27-0.34-2.78-0.95c-0.54-0.64,0.07-1.68-0.23-2.4
			c-0.65-0.1-0.77,0.12-0.97-0.53c-0.23-0.75,0.21-1.69-0.02-2.46c-0.45-0.07-1.26-0.03-1.58-0.42c-0.42-0.51,0.1-1.28-0.67-1.75
			c-0.49-0.31-1.38-0.18-1.93-0.29c-0.12-0.13-0.27-0.22-0.44-0.27c-0.23,0.01-0.46,0.02-0.69,0.04c-0.96-0.31-0.93-2.5-1.07-3.31
			c-0.07-0.41-0.13-0.82-0.17-1.22c-0.03,0.05-0.06,0.1-0.09,0.15c-0.48,0.9-0.97,2.01-1.01,3.03c-0.04,1.18,0.02,2.37,0.02,3.55
			C66.21,62.88,65.96,64.18,66.19,64.9z"/>
		<path class="st3" d="M174.02,97.4c0,0,0.7,3.11,2.78,4.21c2.09,1.09,6.88,0.25,7.66-1.26c0,0,0.7,1.75,2.09,1.76l0.7-0.41
			c0,0,0.54,0.15,1.24,0.41c0.7,0.26,2.4,0.34,1.01-2.35c-1.39-2.69-2.17-4.54-4.8-5.47s-5.96,0.93-7.89,0.67
			S173.75,96.51,174.02,97.4z"/>
		<path class="st5" d="M1.91,60.91c0.12,0.86,0.25,1.72,0.39,2.56c0.33,2.09,0.72,4.12,1.17,6.09c0.35,1.61,0.74,3.18,1.17,4.71
			c0.35,1.29,0.73,2.55,1.13,3.79c0.11,0.38,0.24,0.75,0.36,1.12c0.03,0,0.07,0,0.1,0.01c0.35,0.07,0.64,0.36,1,0.38
			c0.11,0.01,0.21,0,0.3-0.03c0.13-0.03,0.25-0.1,0.36-0.18c0.05-0.04,0.11-0.08,0.15-0.14c0.05-0.05,0.1-0.1,0.14-0.16
			C8.22,79,8.26,78.95,8.3,78.89c0.08-0.12,0.15-0.24,0.22-0.36h0.01c0.01-0.02,0.02-0.04,0.03-0.06c0.17-0.29-0.04-0.43,0.31-0.62
			c0.11-0.06,0.38,0.07,0.53,0.02c0.89-0.31,0.71-0.9,0.52-1.73c-0.06-0.24-0.11-0.48-0.15-0.72c-0.15-0.85-0.23-1.7-0.35-2.55
			c-0.06-0.35-0.12-0.71-0.19-1.07c-0.22-1.03-0.47-2.02-0.31-3.07c0.09-0.58,0.28-1.05,0.33-1.64c0.02-0.21,0.02-0.41,0.02-0.61
			c0.01-0.25,0-0.49-0.01-0.74c-0.01-0.18-0.02-0.35-0.05-0.53c-0.06-0.57-0.17-1.14-0.33-1.69c-0.04-0.17-0.09-0.34-0.16-0.51
			c-0.05-0.16-0.1-0.31-0.16-0.46c-0.11-0.29-0.25-0.57-0.37-0.86C8.12,61.53,8.05,61.36,8,61.2c-0.03-0.07-0.05-0.15-0.07-0.22
			v-0.04c-0.02-0.08-0.04-0.17-0.05-0.25c-0.02-0.13-0.03-0.25-0.02-0.38c0.06,0.15,0.16,0.23,0.32,0.24
			c0.09-0.71-0.46-1.65-0.56-2.39c-0.07-0.51-0.09-1.03-0.09-1.55c0-0.41,0.02-0.82,0.03-1.22c0.01-1.08,0.01-2.15-0.07-3.23
			c-0.04-0.49-0.2-1.2-0.28-1.87c-0.05-0.44-0.07-0.87-0.01-1.23c0.04-0.23,0.27-0.42,0.29-0.51c0.14-0.71,0.06-1.48,0-2.24
			c-0.01-0.1-0.01-0.2-0.02-0.3c-0.01-0.18-0.02-0.37-0.02-0.55c0-0.43,0.04-0.85,0.17-1.25c0.19,0.01,0.38,0.03,0.57,0.05
			c0.01-0.37,0-0.74-0.03-1.12c0,0,0-0.01,0-0.02c-0.02-0.27-0.05-0.55-0.09-0.83c-0.13-0.98-0.33-1.97-0.45-2.96
			c-0.02-0.13-0.03-0.26-0.05-0.39c-0.02-0.2-0.03-0.39-0.04-0.59c0.03,0.07,0.06,0.07,0.1,0.04c0.01-0.01,0.03-0.03,0.04-0.06
			c0.01-0.02,0.03-0.05,0.04-0.09c0.02-0.04,0.03-0.08,0.05-0.12c0.01-0.04,0.03-0.08,0.04-0.13c0.1-0.34,0.21-0.81,0.27-1.17
			c0.01-0.03,0.01-0.06,0.02-0.1c0.01-0.04,0.01-0.07,0.02-0.11V36.6c0.02-0.08,0.03-0.14,0.04-0.19c0-0.03,0.01-0.05,0.01-0.06
			c0.12-0.92-0.14-2.44,0.3-3.37c0.23,0.35,0.26,0.84,0.69,0.86c0.03-0.19,0.05-0.62,0.07-1.14c0.04-0.81,0.11-1.83,0.33-2.51
			c0.01-0.05,0.03-0.09,0.05-0.14c0.06-0.16,0.13-0.3,0.21-0.4c0.03-0.04,0.06-0.07,0.1-0.1c0.09-0.07,0.2-0.1,0.33-0.08
			c1.03-1.7,0.21-4.3,1.31-6.04c0.19-0.29,0.58-0.51,0.82-0.87c0.18-0.27,0.9-2.53,1.48-2.71c0.02,0.22,0.03,0.44,0.05,0.67
			c1.48-0.87,1.73-3.16,3.16-3.98c0.32-0.18,0.56-0.15,0.91-0.4c0.33-0.25,0.5-0.57,0.96-0.58c0.23,0.25,0.3,0.49,0.52,0.67
			c0.38-0.69,0.67-1.48,1.27-1.97c0.18-0.08,0.37-0.13,0.56-0.16c0.32-0.19,0.59-0.44,0.8-0.74c0.59-0.65,2.05-3.57,3.08-2.05
			c1.09-0.4,1.39-1.67,2.38-2.14c0.08,0.5-0.05,0.98,0.04,1.48c0.86-0.15,1.32-1.21,2.29-1.26c0.83-0.04,0.67,0.3,0.72,1.07
			c0.67,0.56,2.77-2.15,3.54-2.26c0.12,0.22,0.25,0.45,0.37,0.68c1.05-0.04,1.68-1.45,2.71-1.24c-0.06,0.29-0.01,0.56,0.15,0.8
			c1.13-0.3,2.22-0.22,3.4-0.23c0.45,0,0.91,0,1.36-0.02c0.34-0.04,0.59,0.08,0.76,0.37c0.26,0.33,0.61,0.42,1.04,0.27
			c0.68-0.21,1.38-0.31,2.09-0.29c0.43,0.43-0.07,1.47-0.12,2c0.4,0.49,1.1,0.32,1.66,0.4c0.15,0.69-0.21,0.92,0.37,1.43
			c0.66,0.59,3.37,0.8,3.63,1.78c-0.66,0.26,0,0.57,0.33,0.78c0.87,0.56,1.96,0.92,2.72,1.64c-0.05,0.89-0.86,0.67,0.29,1.39
			c0.52,0.32,2.74,0.85,2.66,1.61c-0.18,0.14-0.38,0.27-0.59,0.36c0.26,0.44,3.89,2.17,2.63,2.69c0.21,0.64,0.87,0.69,0.99,1.43
			c0.1,0.66,0.01,0.77,0.48,1.33c0.42,0.51,1.92,3.05,0.94,3.45c0.91,0.27,1.39,1.96,1.18,2.8c-0.07,0.28-0.36,0.65-0.46,0.92
			c-0.16,0.47-0.25,0.73-0.12,1.31c0.26,1.21,1.26,1.44,1.89,2.34c0.98,1.4-0.61,3.07,0.73,4.37c0.25,0.25,0.65,0.24,0.75,0.61
			c0.18,0.67-1.39,1.36-1.76,1.71c0.15,0.72,1.22,0.92,1.67,1.46c0.46,0.56,0.26,0.61,0.09,1.28c-0.35,1.35,1.26,2.58,0.2,3.68
			c-0.59,0.61-1.1,0.51-0.92,1.4c0.1,0.49,0.42,0.81,0.32,1.35c-0.09,0.53-0.29,0.55-0.62,0.71c0.49,0.2,0.95,0.44,1.37,0.72
			c0.43,0.29,0.69,0.7,1.13,0.99c-0.89,0.11-1.5,0.75-1.03,1.57c0.35,0.59,0.93,0.83-0.22,1.12c-0.57,0.14-1.2-0.08-1.76,0.06
			c-0.05,0.01-0.1,0.03-0.15,0.05c0.05,0.06,0.11,0.11,0.18,0.16c0.4,0.28,0.99,0.29,1.42,0.51c-0.16,0.41-0.57,0.52-0.75,0.93
			c0.22,0.68,1.11,0.9,1.72,1c1.88,0.33,3.74,0.14,5.43,1.23c1.06,0.69,1.92,1.46,2.74,2.41c0.23,0.26,0.37,0.55,0.7,0.71
			c0.7,0.11,1.97,0.58,2.79,0.88c0.75,0.27,4.43,1.19,4.36,2.38c-0.24,0.05-0.42,0.17-0.55,0.37c0.25,0.64,0.84,0.73,1.25,1.19
			c0.32,0.37,0.36,0.81,0.61,1.25c0.96,1.66,2.3,0.41,3.72,0.88c1.01,0.33,0.3,1.22,0.69,1.84c0.35,0.53,1.46,0.01,1.97-0.12
			c0.98-0.26,2.64-1.14,3.63-0.66c0.62,0.31,0.64,1.02,0.74,1.61c0.5,0.26,1.4-0.21,1.95-0.27c0.59-0.07,1.41-0.2,1.97,0
			c0.08,0.44-0.02,0.86,0.07,1.3c0.95,0.03,1.65-1.15,2.66-1.04c0.87,0.1,1.29,1.12,2.05,1.34c0.72,0.21,1.75-0.23,2.48-0.38
			c0.93-0.19,1.98-0.47,2.94-0.26c0.77,0.16,1.26,0.36,2.16,0.34c0.89-0.01,1.5,0.05,2.27,0.43c0.34,0.16,0.16,0.21,0.57,0.24
			c0.5,0.03,1.07-0.49,1.52-0.69c0.57-0.25,1.32-0.52,1.93-0.61c0.1,0.34,0.01,0.54,0.16,0.85c0.84-0.14,1.49-0.68,2.28-0.87
			c0.6-0.15,0.9,0.17,1.44,0.29c0.51,0.12,1.2,0.06,1.73,0.05c0.97-0.03,1.74-0.59,2.69-0.67c0.34,0.42-0.07,0.81,0.38,1.25
			c0.36,0.35,1.11,0.39,1.59,0.41c1.03,0.06,2.2,0.14,3.15-0.32c0.2-0.12,0.4-0.23,0.61-0.35c0.27-0.16,0.38-0.39,0.33-0.69
			c0.72-0.76,3.06-0.48,3.4-1.64c0.32-1.08-1-1.33-1.7-1.38c0.07-0.73,1.33-1.93,1.69-2.56c0.39-0.69,0.8-1.27,0.63-2.07
			c1.86,1.24,1.67,0.44,1.74-0.41c0.92,0,2.4-0.11,3.23,0.12c0.6,0.16,1.42,0.65,1.66,1.28c0.15,0.42-0.03,0.88,0.04,1.31
			c1.06,0.24,2.13-0.03,3.22,0.27c1.79,0.5,3.68,0.99,5.38,1.73c-0.2-7.02-5.08-14.35-10.7-16.56c-0.05,0.07-0.11,0.13-0.16,0.19
			c0.29,0.18,0.6,0.31,0.93,0.4l-4,1v-0.27c-1.42-0.41-3.52-0.13-4.94,0.09c-1.62,0.25-3.05,0.51-4.69,0.56
			c0.59-0.31,0.9-1.06,0.36-1.4c-0.22-0.14-1.09,0-1.34,0.01c-0.92,0.03-1.8,0.23-2.7,0.32c-0.41,0.04-0.92,0.16-1.31-0.03
			c-0.14-0.07-0.15-0.47-0.34-0.55c-0.79-0.35-2.44-0.06-3.29-0.06c-0.81,0-1.79,0.16-2.56-0.03c-0.22-0.05-0.24-0.26-0.49-0.32
			c-0.29-0.08-0.72,0.02-1.02,0.03c-0.83,0.01-4.1-0.05-2.76-1.56c-1.24,0.41-3,0.36-4.3,0.23c-0.93-0.09-1.31-0.65-2.11-0.99
			c-1.12-0.48-2.5-0.38-3.69-0.35c-1.26,0.03-2.26-0.43-3.45-0.73c-0.13-0.7,0.13-1.07-0.69-1.27c-1.05-0.24-2.34-0.01-3.42-0.01
			c-0.98,0-2.12,0.17-3.07-0.03c-0.85-0.18-1.51-0.31-2.44-0.29c-0.9,0.01-1.84-0.02-2.57-0.55c-0.19-0.14-0.16-0.35-0.36-0.45
			c-0.27-0.13-0.84-0.02-1.16-0.01c-0.77,0.01-1.13-0.15-1.83-0.31c-0.49-0.11-0.99,0.01-1.48-0.1c-2.6-0.57-5.49-0.26-8.19-0.26
			c-0.48,0-1.02,0.06-1.5,0.01c-0.73-0.09-0.66-0.16-0.66-0.87c0-0.64-0.24-0.93-0.35-1.45c-0.12-0.53,0.11-1.1-0.04-1.63
			c-0.83,0.04-0.76-1.12-0.94-1.68c-0.38-1.19-0.78-2.34-0.94-3.6c-0.32-2.43-1.26-4.8-2.07-7.14c-0.37-1.09-0.88-2.09-1.2-3.21
			c-0.34-1.15-0.59-2.35-1.12-3.43c-0.64-1.31-1.14-2.64-1.68-3.99c-0.43-1.1-0.83-1.57-1.66-2.31c-0.77-0.7-1.45-1.91-1.88-2.83
			c-0.34-0.73-0.47-0.85-0.92-1.4c-1.16-1.4-2.06-3.65-3.69-4.61c-0.53-0.32-0.98-0.03-1.51-0.24c-0.35-0.14-0.56-0.57-0.86-0.8
			c-0.33-0.25-0.68-0.36-1.07-0.5c-0.6-0.22-1.16-0.21-1.75-0.39c-0.56-0.16-0.98-0.56-1.6-0.65c-0.01-1.35-1.82-1.3-2.79-1.51
			c-0.86-0.19-1.5-0.5-2.27-0.87c-0.5-0.24-0.85-0.11-1.35-0.21c-0.6-0.13-1.15-0.73-1.71-0.94c-1.17-0.43-2.58-0.62-3.81-0.34
			c-0.47,0.11-0.9,0.35-1.35,0.5c-1.64,0.53-3.45,0.35-5.15,0.42c-1.23,0.05-1.99,0.77-3.09,1.34c-1.03,0.53-2.11,1.08-3.12,1.66
			c-1.25,0.7-2.28,1.74-3.58,2.34c-0.54,0.25-1.14,0.24-1.65,0.48c-0.46,0.22-0.49,0.52-0.84,0.86c-0.41,0.41-0.97,0.52-1.36,0.99
			c-0.46,0.54-0.5,0.67-1.15,1c-0.88,0.44-1.06,1.25-1.82,1.76c-0.57,0.39-1.01,0.4-1.29,1.16c-0.21,0.55-0.29,1.2-0.42,1.78
			c-0.26,1.16-1.04,2.13-1.65,3.13c-0.21,0.36-0.39,0.77-0.57,1.15c-0.33,0.74-0.83,1.31-1.18,2.02c-0.44,0.87-0.18,1.94-0.6,2.85
			c-0.21,0.46-0.63,0.79-0.91,1.24c-0.43,0.72-0.4,1.57-0.73,2.3c-0.14,0.29-0.36,0.47-0.51,0.78c-0.2,0.42-0.25,0.98-0.35,1.5
			c-0.03,0.19-0.08,0.37-0.14,0.54c-0.39,1.09-0.32,2.2-0.45,3.32C4.07,36.47,4,36.85,3.89,37.23c-0.42,1.42-0.48,3.06-0.35,4.63
			c0.05,0.79,0.15,1.57,0.28,2.29c0.14,0.83,0.19,1.7,0.2,2.59c0.01,1.28-0.08,2.59-0.11,3.85c-0.01,0.32-0.02,0.64-0.02,0.95
			c0,1.94-0.03,3.89,0,5.83v0.5c0.02,0.8,0.11,1.15-0.44,1.74c-0.47,0.51-1.06,0.68-1.52,1.27C1.92,60.89,1.92,60.9,1.91,60.91z"/>
		<path class="st0" d="M6.13,79.18c0.72,2.17,1.5,4.25,2.33,6.25c0.74,1.78,1.52,3.5,2.33,5.15c1,2.03,2.04,3.95,3.12,5.78
			c0.64,1.1,1.3,2.16,1.96,3.19c1.36,2.08,2.75,4.01,4.14,5.79c1.28,1.63,2.57,3.14,3.84,4.53c7.31,7.94,14.37,12.06,17.76,12.68
			c8.29,1.51,15.76-6.9,2.9-10.31c-3.64-0.96-7.77-4.29-11.88-9.21c-0.92-1.09-1.84-2.26-2.74-3.51c-0.86-1.17-1.71-2.4-2.55-3.69
			c-0.96-1.47-1.9-3.01-2.83-4.61c-0.92-1.6-1.83-3.27-2.7-5c-0.98-1.9-1.91-3.87-2.8-5.88c-0.67-1.5-1.32-3.03-1.92-4.58
			C16.38,74,15.72,72.2,15.1,70.4c-0.6-1.76-1.15-3.53-1.67-5.31c-0.48-1.68-0.93-3.37-1.33-5.07c-0.28-1.18-0.53-2.36-0.76-3.53
			c-0.38-1.93-0.7-3.85-0.94-5.75c-0.13-1.01-0.24-2.01-0.33-3.01c-0.04-0.51-0.08-1.01-0.1-1.51c-0.09-1.43-0.11-2.82-0.05-4.18
			c0.06-1.64,0.2-3.23,0.44-4.76c0.24-1.61,0.57-3.16,1-4.64c5.13-18.37,22.88-27.12,36.88-17.67C62.9,24.85,62.56,45.5,62.08,51.8
			c0.97,0.28,1.97,0.57,2.87,0.97c0.33-0.16,0.53-0.18,0.62-0.71c0.1-0.54-0.22-0.86-0.32-1.35c-0.18-0.89,0.33-0.79,0.92-1.4
			c1.06-1.1-0.55-2.33-0.2-3.68c0.17-0.67,0.37-0.72-0.09-1.28c-0.45-0.54-1.52-0.74-1.67-1.46c0.37-0.35,1.94-1.04,1.76-1.71
			c-0.1-0.37-0.5-0.36-0.75-0.61c-1.34-1.3,0.25-2.97-0.73-4.37c-0.63-0.9-1.63-1.13-1.89-2.34c-0.13-0.58-0.04-0.84,0.12-1.31
			c0.1-0.27,0.39-0.64,0.46-0.92c0.21-0.84-0.27-2.53-1.18-2.8c0.98-0.4-0.52-2.94-0.94-3.45c-0.47-0.56-0.38-0.67-0.48-1.33
			c-0.12-0.74-0.78-0.79-0.99-1.43c1.26-0.52-2.37-2.25-2.63-2.69c0.21-0.09,0.41-0.22,0.59-0.36c0.08-0.76-2.14-1.29-2.66-1.61
			c-1.15-0.72-0.34-0.5-0.29-1.39c-0.76-0.72-1.85-1.08-2.72-1.64c-0.33-0.21-0.99-0.52-0.33-0.78c-0.26-0.98-2.97-1.19-3.63-1.78
			c-0.58-0.51-0.22-0.74-0.37-1.43c-0.56-0.08-1.26,0.09-1.66-0.4c0.05-0.53,0.55-1.57,0.12-2c-0.71-0.02-1.41,0.08-2.09,0.29
			c-0.43,0.15-0.78,0.06-1.04-0.27c-0.17-0.29-0.42-0.41-0.76-0.37c-0.45,0.02-0.91,0.02-1.36,0.02c-1.18,0.01-2.27-0.07-3.4,0.23
			c-0.16-0.24-0.21-0.51-0.15-0.8c-1.03-0.21-1.66,1.2-2.71,1.24c-0.12-0.23-0.25-0.46-0.37-0.68c-0.77,0.11-2.87,2.82-3.54,2.26
			c-0.05-0.77,0.11-1.11-0.72-1.07c-0.97,0.05-1.43,1.11-2.29,1.26c-0.09-0.5,0.04-0.98-0.04-1.48c-0.99,0.47-1.29,1.74-2.38,2.14
			c-1.03-1.52-2.49,1.4-3.08,2.05c-0.21,0.3-0.48,0.55-0.8,0.74c-0.19,0.03-0.38,0.08-0.56,0.16c-0.6,0.49-0.89,1.28-1.27,1.97
			c-0.22-0.18-0.29-0.42-0.52-0.67c-0.46,0.01-0.63,0.33-0.96,0.58c-0.35,0.25-0.59,0.22-0.91,0.4c-1.43,0.82-1.68,3.11-3.16,3.98
			c-0.02-0.23-0.03-0.45-0.05-0.67c-0.58,0.18-1.3,2.44-1.48,2.71c-0.24,0.36-0.63,0.58-0.82,0.87c-1.1,1.74-0.28,4.34-1.31,6.04
			c-0.13-0.02-0.24,0.01-0.33,0.08c-0.04,0.03-0.07,0.06-0.1,0.1c-0.08,0.1-0.15,0.24-0.21,0.4c-0.02,0.05-0.04,0.09-0.05,0.14
			c-0.22,0.68-0.29,1.7-0.33,2.51c-0.02,0.52-0.04,0.95-0.07,1.14c-0.43-0.02-0.46-0.51-0.69-0.86c-0.44,0.93-0.18,2.45-0.3,3.37
			c0,0.01-0.01,0.03-0.01,0.06c-0.01,0.04-0.02,0.11-0.04,0.19v0.01c-0.01,0.04-0.01,0.07-0.02,0.11c-0.01,0.04-0.01,0.07-0.02,0.1
			c-0.06,0.36-0.17,0.83-0.27,1.17c-0.01,0.05-0.02,0.09-0.04,0.13c-0.01,0.04-0.03,0.09-0.05,0.12c-0.01,0.04-0.03,0.07-0.04,0.09
			c-0.01,0.03-0.03,0.05-0.04,0.06c-0.04,0.03-0.07,0.03-0.1-0.04c0.01,0.2,0.02,0.39,0.04,0.59c0.02,0.13,0.03,0.26,0.05,0.39
			c0.12,0.99,0.32,1.98,0.45,2.96c0.04,0.28,0.07,0.56,0.09,0.83c0,0.01,0,0.02,0,0.02c0.03,0.38,0.04,0.75,0.03,1.12
			C8,44.24,7.81,44.22,7.62,44.21c-0.13,0.4-0.17,0.82-0.17,1.25c0,0.18,0.01,0.37,0.02,0.55c0.01,0.1,0.01,0.2,0.02,0.3
			c0.06,0.76,0.14,1.53,0,2.24c-0.02,0.09-0.25,0.28-0.29,0.51c-0.06,0.36-0.04,0.79,0.01,1.23c0.08,0.67,0.24,1.38,0.28,1.87
			c0.08,1.08,0.08,2.15,0.07,3.23c-0.01,0.4-0.03,0.81-0.03,1.22c0,0.52,0.02,1.04,0.09,1.55c0.1,0.74,0.65,1.68,0.56,2.39
			c-0.16-0.01-0.26-0.09-0.32-0.24c-0.01,0.13,0,0.25,0.02,0.38c0.01,0.08,0.03,0.17,0.05,0.25v0.04C7.95,61.05,7.97,61.13,8,61.2
			c0.05,0.16,0.12,0.33,0.19,0.49c0.12,0.29,0.26,0.57,0.37,0.86c0.06,0.15,0.12,0.31,0.16,0.46c0.07,0.17,0.12,0.34,0.16,0.51
			c0.17,0.56,0.28,1.12,0.33,1.69c0.03,0.18,0.04,0.35,0.05,0.53c0.01,0.25,0.02,0.49,0.01,0.74c0,0.2,0,0.4-0.02,0.61
			c-0.05,0.59-0.24,1.06-0.33,1.64c-0.16,1.05,0.09,2.04,0.31,3.07c0.07,0.36,0.13,0.72,0.19,1.07c0.12,0.85,0.2,1.7,0.35,2.55
			c0.04,0.24,0.09,0.48,0.15,0.72c0.19,0.83,0.37,1.42-0.52,1.73c-0.15,0.05-0.42-0.08-0.53-0.02c-0.35,0.19-0.14,0.33-0.31,0.62
			c-0.01,0.02-0.02,0.04-0.04,0.06c-0.07,0.12-0.14,0.24-0.22,0.36C8.26,78.95,8.22,79,8.18,79.06c-0.04,0.06-0.09,0.11-0.14,0.16
			c-0.04,0.06-0.1,0.1-0.15,0.14c-0.1,0.09-0.23,0.15-0.36,0.18c-0.09,0.03-0.19,0.04-0.3,0.03c-0.36-0.02-0.65-0.31-1-0.38
			C6.2,79.18,6.16,79.18,6.13,79.18z"/>
		<path class="st6" d="M0.87,46.97c0,1.07,0.04,2.16,0.08,3.27c0.01,0.33,0.03,0.65,0.05,0.98c0.1,1.95,0.24,3.86,0.44,5.73
			c0.13,1.34,0.29,2.66,0.47,3.96c0.01-0.01,0.01-0.02,0.02-0.03c0.46-0.59,1.05-0.76,1.52-1.27c0.55-0.59,0.46-0.94,0.44-1.74v-0.5
			c-0.03-1.94,0-3.89,0-5.83c0-0.31,0.01-0.63,0.02-0.95c0.03-1.26,0.12-2.57,0.11-3.85c-0.01-0.89-0.06-1.76-0.2-2.59
			c-0.13-0.72-0.23-1.5-0.28-2.29c-0.13-1.57-0.07-3.21,0.35-4.63c0.11-0.38,0.18-0.76,0.22-1.15c0.13-1.12,0.06-2.23,0.45-3.32
			c0.06-0.17,0.11-0.35,0.14-0.54c0.1-0.52,0.15-1.08,0.35-1.5c0.15-0.31,0.37-0.49,0.51-0.78c0.33-0.73,0.3-1.58,0.73-2.3
			c0.28-0.45,0.7-0.78,0.91-1.24c0.42-0.91,0.16-1.98,0.6-2.85c0.35-0.71,0.85-1.28,1.18-2.02c0.18-0.38,0.36-0.79,0.57-1.15
			c0.61-1,1.39-1.97,1.65-3.13c0.13-0.58,0.21-1.23,0.42-1.78c0.28-0.76,0.72-0.77,1.29-1.16c0.76-0.51,0.94-1.32,1.82-1.76
			c0.65-0.33,0.69-0.46,1.15-1c0.39-0.47,0.95-0.58,1.36-0.99c0.35-0.34,0.38-0.64,0.84-0.86c0.51-0.24,1.11-0.23,1.65-0.48
			c1.3-0.6,2.33-1.64,3.58-2.34c1.01-0.58,2.09-1.13,3.12-1.66c1.1-0.57,1.86-1.29,3.09-1.34c1.7-0.07,3.51,0.11,5.15-0.42
			c0.45-0.15,0.88-0.39,1.35-0.5c1.23-0.28,2.64-0.09,3.81,0.34c0.56,0.21,1.11,0.81,1.71,0.94c0.5,0.1,0.85-0.03,1.35,0.21
			c0.77,0.37,1.41,0.68,2.27,0.87c0.97,0.21,2.78,0.16,2.79,1.51c0.62,0.09,1.04,0.49,1.6,0.65c0.59,0.18,1.15,0.17,1.75,0.39
			c0.39,0.14,0.74,0.25,1.07,0.5c0.3,0.23,0.51,0.66,0.86,0.8c0.53,0.21,0.98-0.08,1.51,0.24c1.63,0.96,2.53,3.21,3.69,4.61
			c0.45,0.55,0.58,0.67,0.92,1.4c0.43,0.92,1.11,2.13,1.88,2.83c0.83,0.74,1.23,1.21,1.66,2.31c0.54,1.35,1.04,2.68,1.68,3.99
			c0.53,1.08,0.78,2.28,1.12,3.43c0.32,1.12,0.83,2.12,1.2,3.21c0.81,2.34,1.75,4.71,2.07,7.14c0.16,1.26,0.56,2.41,0.94,3.6
			c0.18,0.56,0.11,1.72,0.94,1.68c0.15,0.53-0.08,1.1,0.04,1.63c0.11,0.52,0.35,0.81,0.35,1.45c0,0.71-0.07,0.78,0.66,0.87
			c0.48,0.05,1.02-0.01,1.5-0.01c2.7,0,5.59-0.31,8.19,0.26c0.49,0.11,0.99-0.01,1.48,0.1c0.7,0.16,1.06,0.32,1.83,0.31
			c0.32-0.01,0.89-0.12,1.16,0.01c0.2,0.1,0.17,0.31,0.36,0.45c0.73,0.53,1.67,0.56,2.57,0.55c0.93-0.02,1.59,0.11,2.44,0.29
			c0.95,0.2,2.09,0.03,3.07,0.03c1.08,0,2.37-0.23,3.42,0.01c0.82,0.2,0.56,0.57,0.69,1.27c1.19,0.3,2.19,0.76,3.45,0.73
			c1.19-0.03,2.57-0.13,3.69,0.35c0.8,0.34,1.18,0.9,2.11,0.99c1.3,0.13,3.06,0.18,4.3-0.23c-1.34,1.51,1.93,1.57,2.76,1.56
			c0.3-0.01,0.73-0.11,1.02-0.03c0.25,0.06,0.27,0.27,0.49,0.32c0.77,0.19,1.75,0.03,2.56,0.03c0.85,0,2.5-0.29,3.29,0.06
			c0.19,0.08,0.2,0.48,0.34,0.55c0.39,0.19,0.9,0.07,1.31,0.03c0.9-0.09,1.78-0.29,2.7-0.32c0.25-0.01,1.12-0.15,1.34-0.01
			c0.54,0.34,0.23,1.09-0.36,1.4c1.64-0.05,3.07-0.31,4.69-0.56c1.42-0.22,3.52-0.5,4.94-0.09v0.27l4-1
			c-0.33-0.09-0.64-0.22-0.93-0.4c0.05-0.06,0.11-0.12,0.16-0.19c-0.53-0.22-1.07-0.38-1.61-0.49c0,0-10.42-2.74-29.72-4.84
			c-16.77-1.82-26.37-4.09-34.22-3.33c-0.29-0.78-0.72-1.53-1.36-2.25c-7.05-7.95-0.41-25.23-21.57-37.49
			C33.99-4.53,8.19-0.06,2.15,31.19c-0.27,1.4-0.5,2.85-0.69,4.36c-0.23,1.84-0.4,3.76-0.49,5.77C0.87,43.13,0.84,45.02,0.87,46.97z
			"/>
		<path class="st7" d="M21.99,103.84c-0.68,0.39-1.32,1.03-1.98,1.5c1.28,1.63,2.57,3.14,3.84,4.53c0.34-0.27,0.72-0.48,1.12-0.65
			c0.29-0.1,0.58-0.2,0.86-0.3c0.54-0.26,0.91-0.67,1.09-1.24c1.1-1.39,3.16-2.18,4.51-3.36c0.45-0.39,0.84-0.82,1.2-1.29
			c-0.92-1.09-1.84-2.26-2.74-3.51c-0.49,0.37-0.96,0.76-1.41,1.19c-0.89,0.81-1.52,1.48-2.66,1.87
			C24.54,103.02,23.19,103.17,21.99,103.84z"/>
		<path class="st7" d="M14.01,96.26c-0.03,0.03-0.06,0.06-0.1,0.1c0.64,1.1,1.3,2.16,1.96,3.19c1.73-0.89,3.68-0.74,5.53-1.03
			c0.64-0.09,1.02-0.35,1.59-0.62c0.87-0.42,1.87-0.53,2.72-0.95c0.56-0.28,1.11-0.67,1.63-1.12c-0.96-1.47-1.9-3.01-2.83-4.61
			c-0.26,0.25-0.48,0.49-0.57,0.57c-0.68,0.57-1.81,1.37-2.76,1.47c-1.23,0.14-2.33,0.01-3.58,0.45
			C16.13,94.23,15.11,95.19,14.01,96.26z"/>
		<path class="st7" d="M8.46,85.43c0.74,1.78,1.52,3.5,2.33,5.15c0.22-0.01,0.44,0,0.64-0.05c0.56-0.13,0.75-0.63,1.14-0.8
			c0.72-0.32,1.24-0.18,1.99-0.85c0.39-0.34,0.63-0.7,1.17-0.73c0.57-0.03,0.86,0.39,1.37,0.38c0.96-0.01,1.23-1.42,2.09-1.68
			c0.34-0.1,0.89,0.08,1.28-0.01c0.47-0.11,0.9-0.36,1.34-0.62c-0.98-1.9-1.91-3.87-2.8-5.88c-0.16,0.14-0.31,0.26-0.48,0.34
			c-0.44,0.21-0.66,0.19-1.12,0.51c-0.48,0.33-0.64,0.95-1.29,1.1c-0.31,0.07-0.63-0.11-0.94-0.11c-1.61,0.02-2.19,1.57-3.64,1.76
			c-0.3,0.04-0.6-0.18-0.94-0.13C9.62,83.95,9.25,85,8.46,85.43z"/>
		<path class="st7" d="M10.36,37.28c0.24-1.61,0.57-3.16,1-4.64c-0.12-0.05-0.27-0.07-0.61-0.02c-0.46,0.07-0.99,0.1-1.53,0.08
			c-0.54-0.02-1.1-0.09-1.59-0.22c-0.7-0.2-1.18-0.27-2-0.26c-0.31,0.04-0.62,0.04-0.93,0c-0.12-0.01-0.24-0.03-0.36-0.06
			c-0.14-0.18-0.28-0.36-0.42-0.55c-0.42-0.26-1.21-0.28-1.77-0.42c-0.27,1.4-0.5,2.85-0.69,4.36c0.24,0.05,0.43,0.12,0.53,0.22
			c0.35,0.37,0.15,1.02,0.74,1.11c0.54,0.08,0.91-0.49,1.38-0.8c0.15-0.1,0.32-0.17,0.5-0.19c0.18,0.19,0.27,0.42,0.28,0.68
			c0.31,0.26,0.66,0.37,1.06,0.31c0.75,0.13,1.47-0.16,2.16-0.27V36.6c0.22-0.03,0.43-0.05,0.64-0.04c0.57,0.04,0.65,0.39,1.21,0.61
			C10.09,37.22,10.22,37.26,10.36,37.28z"/>
		<path class="st7" d="M4.97,74.18c-0.11,0.04-0.22,0.07-0.33,0.09c0.35,1.29,0.73,2.55,1.13,3.79C6,77.98,6.22,77.93,6.47,78
			c0.41,0.11,0.51,0.76,0.96,0.9c0.48,0.15,0.75-0.14,1.09-0.37h0.01c0.07-0.04,0.13-0.08,0.21-0.12c0.63-0.31,1.04-0.1,1.73-0.13
			c1.25-0.07,1.37-1.2,2.28-1.8c0.91-0.61,2.28-0.22,3.41-0.51c0.31-0.08,0.62-0.15,0.93-0.21C16.38,74,15.72,72.2,15.1,70.4
			c-0.4,0.41-0.77,0.98-1.17,1.16c-0.04-0.25-0.15-0.48-0.31-0.68c-0.92,0.19-1.44,1.04-2.16,1.58c-0.96-1.18-1.39-0.21-2.04,0.41
			c-0.25,0.24-0.53,0.42-0.88,0.42c-0.58,0.01-0.79-0.48-1.45-0.39C6.23,73.02,5.74,73.92,4.97,74.18z"/>
		<path class="st7" d="M4.71,62.4c-0.77,0.3-1.58,0.75-2.41,1.07c0.33,2.09,0.72,4.12,1.17,6.09c0.94-0.25,1-1.52,1.91-1.7
			c0.29-0.05,0.61,0.09,0.9,0.07c1.19-0.09,1.08-0.98,1.88-1.45c0.5-0.29,0.75-0.13,1.11,0c0.14,0.06,0.3,0.1,0.5,0.12
			c1.02,0.09,1.63-0.4,2.41-0.89c0.41-0.27,0.82-0.46,1.25-0.62c-0.48-1.68-0.93-3.37-1.33-5.07c-0.3,0.39-0.5,0.92-0.99,1.06
			c-0.16-0.45-0.14-0.94-0.53-1.23c-0.24,0.26-1.25,2.72-1.74,1.4c-0.26,0.02-0.47,0.23-0.65,0.44c-0.23,0.25-0.43,0.5-0.67,0.51
			c-0.31,0-0.43-0.29-0.78-0.34C6.34,61.8,5.1,62.25,4.71,62.4z"/>
		<path class="st7" d="M1,51.22c0.1,1.95,0.24,3.86,0.44,5.73c0.08-0.15,0.16-0.29,0.24-0.42c0.61,0.09,0.39,0.77,0.97,1.02
			c0.41,0.17,0.84,0.06,1.24-0.18c0.64-0.37,1.23-1.05,1.64-1.4c-0.16,1.05,1.22,0.75,1.78,0.66c0.07-0.01,0.14-0.02,0.22-0.02
			c0.67-0.09,1.34-0.06,2.02-0.06c0.58,0,1.18-0.02,1.79-0.06c-0.38-1.93-0.7-3.85-0.94-5.75c-0.93,0.42-2,0.84-2.83,0.79
			c-0.03-0.33,0.01-1.02-0.31-1.22c-0.02-0.01-0.03-0.02-0.05-0.02c-0.43-0.23-0.67,0.33-0.98,0.56c-0.55,0.4-1.26,0.54-1.94,0.31
			c0.01-0.21-0.05-0.41-0.16-0.59c-0.08,0-0.15,0.01-0.22,0.02c-0.65,0.1-1.13,0.56-1.79,0.66C1.77,51.31,1.35,51.23,1,51.22z"/>
		<path class="st7" d="M2.71,41.9c-0.53-0.08-1.14-0.29-1.74-0.58c-0.1,1.81-0.13,3.7-0.1,5.65c0.41-0.27,0.73-0.66,0.77-1.06
			c0.35,0.07,0.31,0.43,0.56,0.66c0.44,0.42,1.02,0.47,1.62,0.28c0.06-0.02,0.13-0.06,0.2-0.11c0.4-0.27,0.87-0.89,1.21-0.92
			c0.32-0.02,0.67,0.35,0.98,0.41c0.39,0.08,0.83,0.1,1.28,0.08c0.66-0.01,1.33-0.09,1.93-0.09h0.55c-0.09-1.43-0.11-2.82-0.05-4.18
			c-0.02,0.01-0.03,0.04-0.05,0.06c0.07-0.26,0.07-0.52,0-0.78c-0.65-0.38-1.2,0.52-1.8,0.97c-0.25,0.2-0.51,0.32-0.8,0.23
			c-0.37-1.56-1.95,0.07-2.7-0.14c-0.26-0.07-0.3-0.37-0.56-0.47c-0.15-0.05-0.31-0.06-0.47-0.05C3.26,41.88,2.98,41.94,2.71,41.9z"
			/>
		<path class="st4" d="M137.15,74c-0.29-1.07-0.38-2.17-0.2-3.26c1.1-6.81,9.63-2.81,11.59-1.8c0.28,0.02,0.57,0.05,0.87,0.08
			c2.37,0.28,4.85,1.22,7.01,2.23c1.12,0.52,2.6,0.96,3.26,2.05c0.64,1.06,0.84,2.42,1.25,3.58c-0.04-0.12,0.24,0.95,0.3,1.05
			c0.29,0.45,0.86,0.63,1.34,0.96c0.75,0.5,1.32,1.22,1.99,1.83c0.8,0.72,1.65,1.33,2.32,2.16c0.36,0.45,0.83,0.76,1.28,1.1
			c0.46,0.35,0.57,0.69,0.94,1.09c0.67,0.72,1.03,0.24,1.8,0.54c0.62,0.24,0.68,0.93,1.08,1.31c0.39,0.38,0.97,0.45,1.45,0.76
			c1.12,0.73,1.06,1.62,1.82,2.54c0.22-0.09,0.38-0.17,0.57-0.28c0.29,0.32,0.95,0.97,1.37,0.94c0.09-0.44,0.05-0.87,0.29-1.25
			c0.79,0.68,0.72,2.63,1.69,2.91c0.14-0.3,0.37-0.41,0.68-0.29c0.19,0.67,1.6,4.02,0.06,3.97c-0.42,0.83-1.09,1.15-1.62,1.27
			c-1.04,1.36-4.63,1.01-8.08,0.03c-2.88-0.82-8.33-4.25-12.87-6.95c-0.74-0.19-1.45-0.47-2.04-1.02c-0.23-0.21-0.45-0.39-0.67-0.56
			c-0.82-0.46-1.56-0.85-2.2-1.16c-0.09-0.04-0.18-0.07-0.28-0.11c-0.15-0.05-0.28-0.13-0.42-0.2c-0.19-0.08-0.38-0.16-0.54-0.21
			c-0.06-0.02-0.12-0.04-0.18-0.07c-0.35-0.05-0.71,0.09-1.04,0c-0.36-0.1-0.74-0.27-1.11-0.42c-1.55-0.6-3.11-0.86-4.72-1.35
			c-0.81-0.25-2.17-0.38-2.85-0.88c-0.89-0.65-1.31-2.1-2.03-2.96c-0.69-0.82-1.39-1.34-1.86-2.3c-0.44-0.88-0.65-2.02-0.8-2.98
			C136.42,75.23,136.66,74.61,137.15,74z"/>
		<path class="st0" d="M62.91,56.02c-1.61,5.43-0.94,11.6,3.32,14.47c0.17,0.12,0.38,0.24,0.58,0.36c0.02,0.06,0.05,0.11,0.08,0.17
			c0.23,0.49,0.47,0.97,0.68,1.46c0.08,0.21,0.23,0.88,0.36,1.06c0.63,0.9,1.77,1.6,2.8,1.68c0.72,0.05,1.07,0.34,1.83,0.33
			c0.92-0.01,1.75-0.12,2.58,0.38c0.58,0.35,1.02,1.04,1.68,1.24c0.42,0.14,0.86,0.01,1.29,0.03c1.32,0.05,2.03,0.58,3.12,1.12
			c0.72,0.35,1.55,0.72,2.29,0.88c1.59,0.36,3.53,0.95,5.01,1.76c-0.22,1.81,3.27,0.95,4.04,0.95c-0.02,0.4-0.35,0.64-0.6,0.92
			c0.82,0.23,1.76,0.03,2.6,0.22c0.83,0.19,2.18-0.15,2.9,0.31c-0.13,0.21-0.13,0.4,0,0.58c0.85-0.18,2.06-0.77,2.86-0.27
			c-0.16,0.28-0.32,0.56-0.47,0.84c1.29,0.36,3.2,0.09,4.51,0.02c-0.39,0.05-0.79,0.22-0.85,0.63c1.25,0.42,3.04,0,4.36,0.13
			c0.86,0.09,1.79,0.19,2.64,0.33c0.92,0.16,1.84,0.39,2.78,0.51c0.76,0.1,1.88-0.11,2.47,0.49c-0.15,0.31-0.27,0.53-0.26,0.88
			c1.5,0.25,3.14-0.21,4.59,0.12c0.91,0.21,1.38,0.28,2.47,0.27c0.48,0,1.74-0.19,2.3,0.05c0.01,0.19,0.03,0.37,0.06,0.55
			c1.19,0.44,3.02,0.06,4.29,0.06c0.79,0,1.64,0.11,2.42-0.05c0.97-0.2,1.73-0.83,2.63-1.2c0.18,0.31,0.31,0.65,0.4,1
			c0.79,0.23,1.44-0.76,2.1-0.97c0.27-0.08,0.51-0.03,0.74-0.08c0.79-0.18,1.45-0.57,2.13-1.01c0.33-0.21,0.8-0.76,1.21-0.69
			c0.05,0.44-0.17,1.14,0.42,1.27c1.54-1.02,3.42-2.95,4.31-4.79c0.75-0.56,1.47-1.16,2.13-1.84c2.55-2.62,3.55-5.95,3.45-9.34
			c-1.7-0.74-3.59-1.23-5.38-1.73c-1.09-0.3-2.16-0.03-3.22-0.27c-0.07-0.43,0.11-0.89-0.04-1.31c-0.24-0.63-1.06-1.12-1.66-1.28
			c-0.83-0.23-2.31-0.12-3.23-0.12c-0.07,0.85,0.12,1.65-1.74,0.41c0.17,0.8-0.24,1.38-0.63,2.07c-0.36,0.63-1.62,1.83-1.69,2.56
			c0.7,0.05,2.02,0.3,1.7,1.38c-0.34,1.16-2.68,0.88-3.4,1.64c0.05,0.3-0.06,0.53-0.33,0.69c-0.21,0.12-0.41,0.23-0.61,0.35
			c-0.95,0.46-2.12,0.38-3.15,0.32c-0.48-0.02-1.23-0.06-1.59-0.41c-0.45-0.44-0.04-0.83-0.38-1.25c-0.95,0.08-1.72,0.64-2.69,0.67
			c-0.53,0.01-1.22,0.07-1.73-0.05c-0.54-0.12-0.84-0.44-1.44-0.29c-0.79,0.19-1.44,0.73-2.28,0.87c-0.15-0.31-0.06-0.51-0.16-0.85
			c-0.61,0.09-1.36,0.36-1.93,0.61c-0.45,0.2-1.02,0.72-1.52,0.69c-0.41-0.03-0.23-0.08-0.57-0.24c-0.77-0.38-1.38-0.44-2.27-0.43
			c-0.9,0.02-1.39-0.18-2.16-0.34c-0.96-0.21-2.01,0.07-2.94,0.26c-0.73,0.15-1.76,0.59-2.48,0.38c-0.76-0.22-1.18-1.24-2.05-1.34
			c-1.01-0.11-1.71,1.07-2.66,1.04c-0.09-0.44,0.01-0.86-0.07-1.3c-0.56-0.2-1.38-0.07-1.97,0c-0.55,0.06-1.45,0.53-1.95,0.27
			c-0.1-0.59-0.12-1.3-0.74-1.61c-0.99-0.48-2.65,0.4-3.63,0.66c-0.51,0.13-1.62,0.65-1.97,0.12c-0.39-0.62,0.32-1.51-0.69-1.84
			c-1.42-0.47-2.76,0.78-3.72-0.88c-0.25-0.44-0.29-0.88-0.61-1.25c-0.41-0.46-1-0.55-1.25-1.19c0.13-0.2,0.31-0.32,0.55-0.37
			c0.07-1.19-3.61-2.11-4.36-2.38c-0.82-0.3-2.09-0.77-2.79-0.88c-0.33-0.16-0.47-0.45-0.7-0.71c-0.82-0.95-1.68-1.72-2.74-2.41
			c-1.69-1.09-3.55-0.9-5.43-1.23c-0.61-0.1-1.5-0.32-1.72-1c0.18-0.41,0.59-0.52,0.75-0.93c-0.5-0.25-1.22-0.23-1.6-0.67
			c0.59-0.23,1.29,0.04,1.91-0.11c1.15-0.29,0.57-0.53,0.22-1.12c-0.47-0.82,0.14-1.46,1.03-1.57c-0.44-0.29-0.7-0.7-1.13-0.99
			c-1.19-0.8-2.75-1.26-4.24-1.69c-0.09,1.19-0.18,1.87-0.18,1.87C62.13,54.65,62.48,55.42,62.91,56.02z"/>
		<path class="st5" d="M136.01,98.23c0,0-1,2.99,2.24,5c3.24,2,9.27,1.39,10.2,0c0,0,1.97,2.8,4.06,1.28c0,0,1.65,1.38,2.39-0.01
			c0.74-1.39-0.77-2.83-2.5-4.94s-3.65-3.38-5.82-2.81c-2.17,0.58-4.84,0.3-6.57-0.14C138.26,96.17,136.15,96.84,136.01,98.23z"/>
		<path class="st5" d="M73.08,96.48c0,0-3.47,3.06-1.97,5.72c1.5,2.67,5.67,2.92,10,2.92c4.33,0,8.17-1.42,10.17-0.92
			s6,1.67,4.5-1.67c-1.5-3.33-4.83-5.5-7.5-4.83c-2.67,0.67-8.17,0.67-8.67-2.17C79.11,92.7,73.08,96.48,73.08,96.48z"/>
		<path class="st0" d="M116.13,74.56c-0.01,0.48,0,0.95,0.08,1.34c0.08,0.39,0.25,0.75,0.44,1.1c0.23,0.72,0.53,1.47,0.92,2.24
			c0.24,1.26,0.44,2.51,0.79,3.77c0.08,0.32,0.17,0.64,0.28,0.95c0.13,0.22,0.32,0.29,0.57,0.23c0.31-0.09,0.53,0,0.66,0.28
			c0.33,0.33,0.48,0.75,0.45,1.27c0.27,1.01,0.32,0.75,0.93,1.23c0.25,0.2,0.6,0.52,0.83,0.75c0.74,0.78,0.7,2.06,1.55,2.69
			c0.32-0.37,0.7-0.49,1.15-0.37c0.12,0.46,0.18,0.94,0.18,1.42c0.18,0.17,0.38,0.19,0.6,0.05c0.37,0.05,0.56,0.27,0.59,0.67
			c0.04,0.47,0.17,0.91,0.4,1.31c0.75,0.17,0.46-1.06,1.18-1.15c0.73,0.78-0.02,3.45,0.81,3.76c0.21-0.29,0.54-1.3,1.02-1.16
			c0.2,0.35,0.48,1.16,0.83,1.41c0.29,0.21,0.39,0.1,0.68,0.21c0.44,0.16,0.73,0.35,1.16,0.66c0.29,0.21,0.72,0.44,0.98,0.7
			c0.54,0.54,0.63,1.37,1.26,1.82c0.23,0.17,1,0.73,1.28,0.8c0.46,0.13,1.03-0.25,1.49-0.17c0.15,0.03,0.24,0.21,0.46,0.22
			c0.5,0.02,0.81-0.38,1.19-0.64c0.55-0.38,1.09-0.61,1.39,0.13c0.36-0.1,0.74-0.11,1.09-0.24c0.61-0.22,1.13-0.77,1.67-1.14
			c0.48,0.19-0.2,2.52,1.03,1.18c0.36-0.39,0.32-1.15,0.8-1.37c0.25-0.11,0.7,0.09,1,0.01c0.07-0.39-0.94-1.92-0.37-1.76
			c0.01-1.04-0.45-2.18-0.75-3.17c-0.19-0.64-0.01-1.4-0.25-1.99c-0.09-0.02-0.18-0.03-0.27-0.05c-0.23-0.56-0.43-1.04-0.62-1.45
			c-0.19,0.1-0.34,0.01-0.55,0.16c-0.65,0.44-0.74,2-1.51,2.27c-0.54,0.19-0.65-0.34-1.16-0.34c-0.42,0-0.56,0.35-0.97,0.4
			c-0.81,0.1-1.43-0.99-2.29-1.07c-0.67-0.07-0.95,0.13-1.53-0.26c-0.64-0.43-1.35-1.42-1.96-1.69c-0.13,0.43-0.09,1.34-0.74,1.39
			c-0.91,0.08-0.68-1.5-1.34-1.74c-0.58-0.21-0.88,0.51-1.36,0.4c-0.64-0.14-0.25-1.58-0.34-2.06c-0.55-0.13-1.22-0.08-1.67,0.31
			c-0.78-0.27,0.12-1.74-0.67-2.24c-0.75-0.47-1.22,0.43-1.9,0.19c-0.13-0.61-0.16-1.38-0.55-1.88c-0.4-0.51-0.27-0.29-0.85-0.4
			c-0.82-0.15-0.86-0.29-0.96-1.35c-0.06-0.54,0.11-1.24-0.08-1.76c-0.14-0.39-0.42-0.52-0.64-0.82c-0.29-0.4-0.32-0.71-0.46-1.26
			c-0.1-0.37-0.21-0.83-0.51-1.09c-0.2-0.18-0.48-0.02-0.69-0.25c-0.52-0.56-0.06-1.5-0.39-2.08c-0.21-0.37-0.79-0.54-1.07-0.87
			c-0.42-0.51-0.5-1.03-0.53-1.66c-0.05-1.04-0.09-2.14,0.06-3.17c0.06-0.35,0.13-0.7,0.2-1.06c-0.32,0.16-0.62,0.35-0.89,0.57
			c-0.14,0.09-0.27,0.2-0.38,0.33c-0.01,0.01-0.01,0.02-0.02,0.03C116.58,70.36,115.92,72.25,116.13,74.56z"/>
		<path class="st0" d="M61.54,66.24c0.07,0.25,0.3,0.22,0.35,0.34c0.32,0.76,0.35,2.6,0.99,3.01c0.46,0.28,0.43-0.37,0.66,0.55
			c0.19,0.72,0,1.63,0.07,2.37c0.42,0.06,0.5-0.34,0.92-0.21c0.05,0.53-0.41,1.08-0.2,1.56c0.31,0.06,0.62,0.06,0.93,0.01
			c0.18,0.01,0.29,0.1,0.34,0.27c0.76,0.13,1.54-0.06,2.3,0.11c-0.09,0.61-0.42,1.04,0.15,1.47c0.51,0.38,1.25,0.08,1.83,0.18
			c0.33,0.85-0.6,1.54-0.7,2.33c-0.09,0.75,0.28,1.53,0.35,2.28c0.05,0.45,0.08,0.94,0.05,1.41c-0.03,0.86-0.9,1.99-0.58,2.78
			c0.29-0.08,0.58-0.1,0.88-0.06c0.17,1.1-1.05,2.12-0.61,3.24c0.36-0.03,0.57-0.29,0.92-0.37c0.01,1.14-0.55,2.27-0.25,3.41
			c0.21-0.05,0.4-0.14,0.56-0.27c0.28,0.6,0.03,1.6,0.04,2.24c0.03,1.16-0.09,3.27,0.69,4.21c0.36-0.17,0.35-0.52,0.6-0.8
			c0.21,0.64-0.27,1.19,0.61,1.32c0.36,0.05,0.67-0.31,0.99-0.56c0.25,0.37,0.54,0.7,0.87,0.94c-0.1,0.61-0.24,1.28,0.1,1.54
			c0.49,0.37,1.06-0.38,1.42-0.51c0.65-0.22,0.93-0.14,1.55-0.53c0.08-0.05,0.18-0.13,0.28-0.21c0.48-0.23,0.97-0.59,1.45-1.06
			c0.16-0.06,0.32-0.09,0.48-0.06c0.55,0.1,0.54,0.58,0.98,0.77c0.7-1.13,0.33-2.6,1.01-3.8c0.47-0.02,0.57,1.02,0.92,1.33
			c0.13-0.64,0.32-1.27,0.47-1.9c0.11-0.47,0.44-0.9,0.53-1.37c0.07-0.34,0-0.64,0.05-0.97c0.33-2.05,1.03-4.01,1.6-5.99
			c0.01-0.03,0.02-0.06,0.02-0.09c0.79-2.56,1.41-5.21,1.8-7.71c0.14-0.39,0.26-0.79,0.27-1.22c0-0.07,0.01-0.15,0.01-0.22
			c-0.12,0.08-0.24,0.14-0.37,0.18c-0.5,0.15-0.82,0.06-1.28-0.04c-0.66-0.14-1.16-0.28-1.88-0.27c-0.47,0.01-0.99,0.12-1.44-0.04
			c-0.03-0.19-0.06-0.37-0.08-0.56c-1.54-0.47-3.39,0.34-4.93-0.09c-0.09-0.43,0.01-0.83-0.07-1.26c-0.71-0.25-1.54,0.15-2.26-0.09
			c-0.19-0.94,0.2-1.15-0.87-1.61c-1.41-0.62-0.25-0.98-0.87-1.95c-0.5-0.77-2.27-0.34-2.78-0.95c-0.54-0.64,0.07-1.68-0.23-2.4
			c-0.65-0.1-0.77,0.12-0.97-0.53c-0.23-0.75,0.21-1.69-0.02-2.46c-0.45-0.07-1.26-0.03-1.58-0.42c-0.42-0.51,0.1-1.28-0.67-1.75
			c-0.49-0.31-1.38-0.18-1.93-0.29c-0.12-0.13-0.27-0.22-0.44-0.27c-0.23,0.01-0.46,0.02-0.69,0.04c-0.96-0.31-0.93-2.5-1.07-3.31
			c-0.07-0.41-0.13-0.82-0.17-1.22c-0.03,0.05-0.06,0.1-0.09,0.15c-0.48,0.9-0.97,2.01-1.01,3.03c-0.04,1.18,0.02,2.37,0.02,3.55
			C61.56,64.22,61.31,65.52,61.54,66.24z"/>
		<path class="st5" d="M118.89,72.4c0.03,0.63,0.11,1.15,0.53,1.66c0.28,0.33,0.86,0.5,1.07,0.87c0.33,0.58-0.13,1.52,0.39,2.08
			c0.21,0.23,0.49,0.07,0.69,0.25c0.3,0.26,0.41,0.72,0.51,1.09c0.14,0.55,0.17,0.86,0.46,1.26c0.22,0.3,0.5,0.43,0.64,0.82
			c0.19,0.52,0.02,1.22,0.08,1.76c0.1,1.06,0.14,1.2,0.96,1.35c0.58,0.11,0.45-0.11,0.85,0.4c0.39,0.5,0.42,1.27,0.55,1.88
			c0.68,0.24,1.15-0.66,1.9-0.19c0.79,0.5-0.11,1.97,0.67,2.24c0.45-0.39,1.12-0.44,1.67-0.31c0.09,0.48-0.3,1.92,0.34,2.06
			c0.48,0.11,0.78-0.61,1.36-0.4c0.66,0.24,0.43,1.82,1.34,1.74c0.65-0.05,0.61-0.96,0.74-1.39c0.61,0.27,1.32,1.26,1.96,1.69
			c0.58,0.39,0.86,0.19,1.53,0.26c0.86,0.08,1.48,1.17,2.29,1.07c0.41-0.05,0.55-0.4,0.97-0.4c0.51,0,0.62,0.53,1.16,0.34
			c0.77-0.27,0.86-1.83,1.51-2.27c0.21-0.15,0.36-0.06,0.55-0.16c-0.85-1.86-1.35-2.38-1.73-2.88c-0.74-1-1.29-2.19-1.91-3.26
			c-0.46-0.79-1.04-1.66-1.43-2.48c-0.32-0.68-0.39-1.42-0.65-2.12c-0.45-1.27-1.11-2.19-1.98-3.22c-0.69-0.8-1.45-1.66-2.22-2.48
			c-1.66-2.21-3.45-3.66-5.14-4.58c-0.3-0.4-0.61-0.79-1.02-1c-0.64-0.33-1.6-0.31-2.32-0.45c-0.36-0.08-0.71-0.09-1.06-0.06
			c-1.66-0.26-2.76-0.09-2.76-0.09c-0.83,0.1-1.58,0.34-2.24,0.69c-0.07,0.36-0.14,0.71-0.2,1.06
			C118.8,70.26,118.84,71.36,118.89,72.4z"/>
		<path class="st5" d="M62.64,56.71c0.04,0.4,0.1,0.81,0.17,1.22c0.14,0.81,0.11,3,1.07,3.31c0.23-0.02,0.46-0.03,0.69-0.04
			c0.17,0.05,0.32,0.14,0.44,0.27c0.55,0.11,1.44-0.02,1.93,0.29c0.77,0.47,0.25,1.24,0.67,1.75c0.32,0.39,1.13,0.35,1.58,0.42
			c0.23,0.77-0.21,1.71,0.02,2.46c0.2,0.65,0.32,0.43,0.97,0.53c0.3,0.72-0.31,1.76,0.23,2.4c0.51,0.61,2.28,0.18,2.78,0.95
			c0.62,0.97-0.54,1.33,0.87,1.95c1.07,0.46,0.68,0.67,0.87,1.61c0.72,0.24,1.55-0.16,2.26,0.09c0.08,0.43-0.02,0.83,0.07,1.26
			c1.54,0.43,3.39-0.38,4.93,0.09c0.02,0.19,0.05,0.37,0.08,0.56c0.45,0.16,0.97,0.05,1.44,0.04c0.72-0.01,1.22,0.13,1.88,0.27
			c0.46,0.1,0.78,0.19,1.28,0.04c0.13-0.04,0.25-0.1,0.37-0.18c0.04-0.86,0.08-1.61,0.25-2.47c0.34-1.87,0.18-4-0.35-5.8
			c-0.3-1.03-0.72-1.89-1.12-2.88c-0.19-0.47-0.31-1.12-0.67-1.48c-0.51-0.5-1.23-0.8-1.77-1.32c-0.85-0.83-1.47-1.76-2.6-2.19
			c-0.24-0.08-0.42-0.14-0.59-0.19c-0.31-0.27-0.62-0.53-0.92-0.78c-0.16-0.33-0.2-0.65-0.57-0.94c-1.28-0.99-2.79-1.77-4.15-2.67
			c-0.29-0.2-0.84-0.87-1.19-1.01c-0.3-0.12-0.63-0.04-0.94-0.11c-0.02-0.09-0.04-0.18-0.06-0.28c-0.32,0-0.62,0.01-0.91,0.01
			c-4.21-1.76-6.92-0.57-8.38,1.95C63.03,56.08,62.83,56.36,62.64,56.71z"/>
		<path class="st7" d="M158.97,51.08c0,0,4.62,1.7,4.62,3.65c0,1.94-0.73,1.75-0.73,1.75s-3.16-4.19-4.99-4.79
			C156.05,51.08,156.66,50.84,158.97,51.08z"/>
		<path class="st6" d="M155.14,57.58c0,0,1.64,4.92,4.19,6.38c2.55,1.46,2.84,4.95,4.33,5.57c1.27-0.05,2.14-0.2,2.68-0.34
			c0.3-1.04,0.29-2.22-0.09-3.41c-1-3.17-2.47-8.94-5.22-11.99C159.35,54.22,156.08,55.31,155.14,57.58z"/>
		<path class="st5" d="M158.06,73.63c0,0,0,0,3.65-0.55c2.39-0.36,4.08-1.9,4.65-3.89c-0.67,0.17-1.83,0.36-3.61,0.36
			c-2.2,0-4.57-0.06-6.06-0.26C156.22,71,156.09,72.64,158.06,73.63z"/>
		<path class="st8" d="M157.51,65.97c-0.07,1.02-0.53,2.19-0.83,3.33c1.49,0.2,3.86,0.26,6.06,0.26c0.33,0,0.64-0.01,0.93-0.02
			c-1.49-0.63-1.78-4.11-4.33-5.57c-2.55-1.46-4.19-6.38-4.19-6.38C153.87,60.68,157.7,63.42,157.51,65.97z"/>
		<path d="M164.4,64.33c0,0,1.19,0.68,1.32,1.37c0.14,0.68-1.14,0.59-1.69,0C163.48,65.1,163.39,63.96,164.4,64.33z"/>
		<path d="M161.6,58.37c0,0-1.88-0.24-2.92,0.49c0,0,0.69,1.58,2.26,2.07C160.94,60.93,162.08,59.83,161.6,58.37z"/>
		<path class="st5" d="M162.65,57.19c0,0,2.01,4.74,2.28,5.8c0.27,1.06-0.21,0.69-0.94,0.23c-0.73-0.47-0.58-1.3-0.85-2.78
			c-0.27-1.48-0.85-2.49-1.61-2.85c-0.76-0.36-1.55-1.31-1.55-1.85c0-0.55,0.03-0.97,0.39-0.97S161.28,56.06,162.65,57.19z"/>
		<path class="st9" d="M133.99,58.13c0,0.01,0,0.01,0.01,0.02c2.19-0.54,4.83-0.55,7.09-0.31c0.63,0.07,1.24,0.18,1.85,0.33
			c0.61,0.15,1.23,0.3,1.84,0.44c0.35,0.27,0.32,0.25,0.29,0.69c-0.06,0.91-0.65,1.44-1.32,1.99c-0.65,0.55-1.14,1.07-1.63,1.77
			c-0.48,0.68-1.35,0.71-1.95,1.44c-0.48,0.58-0.96,1.21-0.81,2.01c0.05,0.25,0.21,0.43,0.2,0.79c-0.01,0.32-0.04,0.65,0.02,0.96
			c0.33,0.1,1.01-0.14,1.22,0.16c0.21,0.29-0.23,1-0.22,1.38c0.51-0.05,0.91-0.43,1.46-0.22c0,0.43-0.39,0.74-0.2,1.2
			c0.64,0.13,1.22-0.07,1.79,0.2c0.06,0.09,0.13,0.18,0.21,0.27c0.26,0.08,0.54,0.1,0.82,0.07c0.7-0.05,1.45-0.45,2.15-0.24
			c0.12,0.69-0.28,1.03,0.72,0.96c0.73-0.05,1.4-0.36,2.14-0.22c0.41,0.08,0.85,0.45,1.39,0.22c0.58-0.25,0.71-1.57,1.46-1.47
			c0.12,0.41,0.14,0.82,0.35,1.22c0.37-0.19,0.88-0.66,1.2-0.97c0.31-0.31,0.77-1.47,1.2-1.52c0.08,0.27-0.06,0.49,0.13,0.73
			c0.34,0.08,0.81-0.17,1.23-0.54c0.3-1.2,0.8-2.44,0.88-3.52c0.18-2.55-3.65-5.29-2.37-8.39c0.69-1.69,2.69-2.73,4.36-3.32
			c-0.28-0.21-0.65-0.35-0.87-0.47c-0.29-0.14-1.53-0.63-1.56-0.98c0.19-0.2,0.54-0.43,0.43-0.72c-0.83-0.11-1.45-0.13-2.1-0.64
			c-0.38-0.29-0.8-0.5-1.22-0.75c-0.55-0.33-1.02-0.48-1.49-0.9c-0.59-0.53-1.3-0.72-2.09-0.76c-0.73-0.04-1.46,0.05-2.19-0.01
			c-0.75-0.06-1.48-0.22-2.24-0.24c-1.37-0.05-2.55,0.16-3.88,0.39c-0.78,0.14-2.1,0.34-2.85-0.02c-0.4-0.2-0.6-0.54-0.67-0.93
			C134.46,51.09,133.22,56.15,133.99,58.13z"/>
		<path class="st10" d="M135.12,65.74c-0.07,0.39-0.26,1.4-0.03,1.77c0.2,0.32,0.63,0.34,0.87,0.78c0.57,1.08,0.43,2.16,0.71,3.26
			c0.12,0.44,0.37,0.07,0.35,0.79c-0.02,0.57-0.4,1.1-0.17,1.68c0.14,0.03,0.28,0.05,0.42,0.07c0.27,0.54-0.51,1.13-0.15,1.69
			c0.57,0.08,1.41-0.19,1.84,0.27c0.31,0.34,0.19,1.29,0.34,1.76c0.15,0.44,0.62,1.83,0.98,2.01c0.4,0.2,0.96-0.32,1.06,0.34
			c0.07,0.44-0.42,0.65-0.52,1.02c-0.41,1.48,3.03-0.14,3.63,0.25c0,0.53-0.4,0.78-0.54,1.24c1.1,0.06,2.41-0.98,3.27-1.54
			c0.32-0.21,1.45-0.86,1.93-1.47c1.96-0.91,3.29-2.57,3.29-2.57c4.2-1.28,5.65-3.46,5.65-3.46c-1.89-0.95-1.84-2.5-1.42-4.14
			c-0.42,0.37-0.89,0.62-1.23,0.54c-0.19-0.24-0.05-0.46-0.13-0.73c-0.43,0.05-0.89,1.21-1.2,1.52c-0.32,0.31-0.83,0.78-1.2,0.97
			c-0.21-0.4-0.23-0.81-0.35-1.22c-0.75-0.1-0.88,1.22-1.46,1.47c-0.54,0.23-0.98-0.14-1.39-0.22c-0.74-0.14-1.41,0.17-2.14,0.22
			c-1,0.07-0.6-0.27-0.72-0.96c-0.7-0.21-1.45,0.19-2.15,0.24c-0.28,0.03-0.56,0.01-0.82-0.07c-0.08-0.09-0.15-0.18-0.21-0.27
			c-0.57-0.27-1.15-0.07-1.79-0.2c-0.19-0.46,0.2-0.77,0.2-1.2c-0.55-0.21-0.95,0.17-1.46,0.22c-0.01-0.38,0.43-1.09,0.22-1.38
			c-0.21-0.3-0.89-0.06-1.22-0.16c-0.06-0.31-0.03-0.64-0.02-0.96c0.01-0.36-0.15-0.54-0.2-0.79c-0.15-0.8,0.33-1.43,0.81-2.01
			c0.6-0.73,1.47-0.76,1.95-1.44c0.49-0.7,0.98-1.22,1.63-1.77c0.67-0.55,1.26-1.08,1.32-1.99c0.03-0.44,0.06-0.42-0.29-0.69
			c-0.61-0.14-1.23-0.29-1.84-0.44c-0.61-0.15-1.22-0.26-1.85-0.33c-2.26-0.24-4.9-0.23-7.09,0.31c0.35,0.9,0.87,2.61,1.54,4.7
			C135.49,63.81,135.27,64.79,135.12,65.74z"/>
		<path class="st11" d="M138.77,48.23c0.07,0.39,0.27,0.73,0.67,0.93c0.75,0.36,2.07,0.16,2.85,0.02c1.33-0.23,2.51-0.44,3.88-0.39
			c0.76,0.02,1.49,0.18,2.24,0.24c0.73,0.06,1.46-0.03,2.19,0.01c0.79,0.04,1.5,0.23,2.09,0.76c0.47,0.42,0.94,0.57,1.49,0.9
			c0.42,0.25,0.84,0.46,1.22,0.75c0.65,0.51,1.27,0.53,2.1,0.64c0.11,0.29-0.24,0.52-0.43,0.72c0.03,0.35,1.27,0.84,1.56,0.98
			c0.22,0.12,0.59,0.26,0.87,0.47c0.57-0.2,1.11-0.35,1.54-0.46c-0.26-0.29-1.8-2.49-2.07-2.72c-3.29-2.74-7.42-4.14-7.42-4.14
			C145.76,45.42,141.6,46.35,138.77,48.23z"/>
		<path class="st12" d="M133.52,53.84c0.03,0.12,0.03,0.25,0.02,0.39c0.73,0,1.42,0.05,1.99,0.11c0.08,0.66,0.42,0.69,1.01,0.75
			c0.04,0.31-0.22,0.61-0.46,0.78c0.61,0.71,2.6-0.12,3.46,0.22c-0.01,0.26-0.2,0.41-0.22,0.68c0.61,0.22,1.27-0.39,1.92-0.19
			c0.09,0.29-0.15,0.4-0.16,0.69c0.52,0.2,1.11-0.41,1.72-0.18c0.03,0.53-0.68,0.52-0.72,0.92c0.36,0.14,0.55-0.12,0.89-0.19
			c0.48-0.09,0.96-0.01,1.44-0.13c1.28-0.34,2.58-0.37,3.88-0.63c0.66-0.14,1.15-0.16,1.52-0.76h0.05c0.61-1.71,1.14-4.92-1.59-8.1
			c-3.73-4.36-8.48-5.96-10.45-5.87c0.35,0.43,0.7,0.78,0.46,1.44c-0.62,0.18-1.33-0.13-1.95,0.08c0.1,0.29,0.49,0.34,0.66,0.66
			c-0.45,0.12-0.76,0.01-0.94,0.53c-0.12,0.37-0.04,0.35-0.24,0.7c-0.15,0.27-0.18,0.17-0.25,0.55c-0.06,0.35-0.1,0.43-0.26,0.76
			c-0.15,0.32-0.09,0.31-0.12,0.62c-0.02,0.38,0.12,0.4-0.23,0.76c-0.24,0.24-0.53,0.41-0.63,0.74c-0.06,0.21,0.04,0.43-0.05,0.64
			c-0.15,0.37-0.55,0.31-0.73,0.55c-0.44,0.56,0.03,0.08-0.03,0.5c-0.06,0.33,0.02,0.18-0.13,0.5c-0.12,0.26-0.28,0.32-0.28,0.64
			c0,0.08,0.22,0.34,0.23,0.53C133.35,52.96,132.59,53.92,133.52,53.84z"/>
		<path class="st13" d="M133.33,57.26c0.86,0.32,0.86,2.04,0.55,2.77c0.52,0.18,1.13-0.08,1.67,0.06c0.06,0.31-0.04,0.61,0.02,0.92
			c0.59,0.14,1.28,0.06,1.9,0.03c-0.1,0.03-0.14,0.1-0.13,0.2c0.6,0.15,1.13,0.49,1.7,0.57c0.77,0.09,1.61-0.01,2.38-0.12
			c0.02-0.01,0.05-0.02,0.07-0.03c4.78-1.96,7.07-2.44,7.78-4.08c0,0,0.3-0.48,0.59-1.28h-0.05c-0.37,0.6-0.86,0.62-1.52,0.76
			c-1.3,0.26-2.6,0.29-3.88,0.63c-0.48,0.12-0.96,0.04-1.44,0.13c-0.34,0.07-0.53,0.33-0.89,0.19c0.04-0.4,0.75-0.39,0.72-0.92
			c-0.61-0.23-1.2,0.38-1.72,0.18c0.01-0.29,0.25-0.4,0.16-0.69c-0.65-0.2-1.31,0.41-1.92,0.19c0.02-0.27,0.21-0.42,0.22-0.68
			c-0.86-0.34-2.85,0.49-3.46-0.22c0.24-0.17,0.5-0.47,0.46-0.78c-0.59-0.06-0.93-0.09-1.01-0.75c-0.57-0.06-1.26-0.11-1.99-0.11
			c-0.06,0.54-0.39,1.21-0.19,1.53c0.16,0,0.3,0.04,0.44,0.13C133.89,56.45,133.24,56.73,133.33,57.26z"/>
		<circle class="st7" cx="160.36" cy="59.01" r="0.38"/>
	</g>
	<g>
		<path class="st14" d="M62.64,56.71c-0.03,0.05-0.54,1-0.57,1.05c-0.48,0.9-0.49,1.11-0.53,2.13c-0.04,1.18,0.02,2.37,0.02,3.55
			c0,0.78-0.25,2.08-0.02,2.8c0.07,0.25,0.3,0.22,0.35,0.34c0.32,0.76,0.35,2.6,0.99,3.01c0.46,0.28,0.43-0.37,0.66,0.55
			c0.19,0.72,0,1.63,0.07,2.37c0.42,0.06,0.5-0.34,0.92-0.21c0.05,0.53-0.41,1.08-0.2,1.56c0.31,0.06,0.62,0.06,0.93,0.01
			c0.18,0.01,0.29,0.1,0.34,0.27c0.76,0.13,1.54-0.06,2.3,0.11c-0.09,0.61-0.42,1.04,0.15,1.47c0.51,0.38,1.25,0.08,1.83,0.18
			c0.33,0.85-0.6,1.54-0.7,2.33c-0.09,0.75,0.28,1.53,0.35,2.28c0.05,0.45,0.08,0.94,0.05,1.41c-0.03,0.86-0.9,1.99-0.58,2.78
			c0.29-0.08,0.58-0.1,0.88-0.06c0.17,1.1-1.05,2.12-0.61,3.24c0.36-0.03,0.57-0.29,0.92-0.37c0.01,1.14-0.55,2.27-0.25,3.41
			c0.21-0.05,0.4-0.14,0.56-0.27c0.28,0.6,0.03,1.6,0.04,2.24c0.03,1.16-0.09,3.27,0.69,4.21c0.36-0.17,0.35-0.52,0.6-0.8
			c0.17,0.53-0.13,1,0.27,1.21c-0.89,1.13-1.96,2.99-1,4.69c1.5,2.66,5.67,2.91,10,2.91c4.33,0,8.17-1.41,10.17-0.91
			c1.93,0.48,5.72,1.58,4.64-1.34c2,0.5,6,1.67,4.5-1.67c-1.5-3.33-4.83-5.5-7.5-4.83c-1.98,0.5-5.5,0.62-7.4-0.5
			c0.28-0.99,0.16-2.11,0.7-3.06c0.47-0.02,0.57,1.02,0.92,1.33c0.13-0.64,0.32-1.27,0.47-1.9c0.11-0.47,0.44-0.9,0.53-1.37
			c0.07-0.34,0-0.64,0.05-0.97c0.33-2.05,1.03-4.01,1.6-5.99c0.01-0.03,0.02-0.06,0.02-0.09c0.17-0.56,0.34-1.13,0.5-1.7
			c0.91-0.01,1.9-0.2,2.27-0.2c-0.02,0.4-0.35,0.64-0.6,0.92c0.82,0.23,1.76,0.03,2.6,0.22c0.83,0.19,2.18-0.15,2.9,0.31
			c-0.13,0.21-0.13,0.4,0,0.58c0.85-0.18,2.06-0.77,2.86-0.27c-0.16,0.28-0.32,0.56-0.47,0.84c1.29,0.36,3.2,0.09,4.51,0.02
			c-0.39,0.05-0.79,0.22-0.85,0.63c1.25,0.42,3.04,0,4.36,0.13c0.86,0.09,1.79,0.19,2.64,0.33c0.92,0.16,1.84,0.39,2.78,0.51
			c0.76,0.1,1.88-0.11,2.47,0.49c-0.15,0.31-0.27,0.53-0.26,0.88c1.5,0.25,3.14-0.21,4.59,0.12c0.8,0.19,1.26,0.26,2.11,0.27
			c0.61,0.78,0.63,1.93,1.42,2.52c0.32-0.37,0.7-0.49,1.15-0.37c0.12,0.46,0.18,0.94,0.18,1.42c0.18,0.17,0.38,0.19,0.6,0.05
			c0.37,0.05,0.56,0.27,0.59,0.67c0.04,0.47,0.17,0.91,0.4,1.31c0.75,0.17,0.46-1.06,1.18-1.15c0.73,0.78-0.02,3.45,0.81,3.76
			c0.21-0.29,0.54-1.3,1.02-1.16c0.2,0.35,0.48,1.16,0.83,1.41c0.29,0.21,0.39,0.1,0.68,0.21c0.44,0.16,0.73,0.35,1.16,0.66
			c0.29,0.21,0.72,0.44,0.98,0.7c0.54,0.54,0.63,1.37,1.26,1.82c0.23,0.17,1,0.73,1.28,0.8c0.09,0.03,0.19,0.03,0.29,0.02
			c0.27,0.87,0.89,1.85,2.21,2.66c3.24,2.01,9.27,1.39,10.19,0c0,0,1.97,2.8,4.06,1.29c0,0,1.65,1.37,2.39-0.01
			c0.74-1.39-0.77-2.83-2.51-4.94c-1.74-2.12-3.65-3.39-5.82-2.81c-0.4,0.1-0.81,0.18-1.23,0.23c-0.03-0.17,0-0.27,0.17-0.22
			c0.01-1.04-0.45-2.18-0.75-3.17c-0.19-0.64-0.01-1.4-0.25-1.99c-0.09-0.02-0.18-0.03-0.27-0.05c-0.23-0.56-0.43-1.04-0.62-1.45
			c-0.85-1.86-1.35-2.38-1.73-2.88c-0.13-0.18-0.26-0.37-0.37-0.56c0.54-0.39,1.11-0.87,1.66-1.42c0.35,0.08,0.68,0.15,0.95,0.23
			c1.61,0.49,3.17,0.74,4.72,1.35c0.36,0.14,0.75,0.32,1.11,0.41c0.33,0.09,0.69-0.05,1.04,0c0.06,0.02,0.12,0.05,0.18,0.07
			c0.16,0.05,0.35,0.13,0.53,0.21c0.14,0.08,0.28,0.15,0.43,0.21c0.1,0.03,0.18,0.07,0.27,0.11c0.65,0.31,1.39,0.7,2.21,1.16
			c0.22,0.17,0.44,0.35,0.67,0.56c0.59,0.54,1.3,0.83,2.04,1.02c4.53,2.7,9.98,6.13,12.86,6.95c1.41,0.4,2.85,0.69,4.12,0.81
			c0.37,1,1.14,2.57,2.5,3.28c2.09,1.09,6.88,0.25,7.66-1.26c0,0,0.69,1.75,2.09,1.76l0.69-0.42c0,0,0.54,0.16,1.24,0.42
			s2.4,0.33,1.01-2.36c-1.4-2.69-2.17-4.54-4.8-5.47c-1.32-0.46-2.81-0.23-4.22,0.09c-0.2-0.88-0.56-1.8-0.65-2.13
			c-0.3-0.12-0.53-0.01-0.67,0.29c-0.97-0.27-0.91-2.22-1.69-2.9c-0.24,0.38-0.21,0.81-0.3,1.25c-0.42,0.03-1.07-0.63-1.36-0.95
			c-0.19,0.12-0.35,0.2-0.57,0.29c-0.76-0.93-0.71-1.81-1.82-2.55c-0.48-0.31-1.06-0.39-1.45-0.76c-0.39-0.38-0.45-1.08-1.07-1.31
			c-0.78-0.3-1.14,0.19-1.81-0.54c-0.36-0.4-0.47-0.74-0.93-1.09c-0.45-0.34-0.92-0.65-1.28-1.1c-0.67-0.83-1.51-1.43-2.31-2.15
			c-0.68-0.61-1.25-1.34-2-1.84c-0.48-0.32-1.04-0.5-1.34-0.95c-0.06-0.09-0.31-1.06-0.3-1.06c-0.4-1.13-0.6-2.46-1.21-3.5
			c0.49-0.07,1.14-0.17,1.99-0.29c2.39-0.36,4.07-1.9,4.64-3.89c0.3-1.04,0.3-2.22-0.08-3.41c-0.75-2.38-1.77-6.23-3.4-9.3
			c0,0,0.72,0.19,0.72-1.76c0-1.85-4.2-3.48-4.59-3.63c-0.02-0.01-0.03-0.01-0.03-0.01c-3.29-2.74-7.41-4.14-7.41-4.14
			c-1.95-0.51-3.7-0.74-5.29-0.76c-3.28-2.84-6.81-3.92-8.44-3.85c0.35,0.43,0.7,0.78,0.46,1.44c-0.62,0.18-1.33-0.13-1.95,0.08
			c0.1,0.29,0.49,0.34,0.66,0.66c-0.45,0.12-0.76,0.01-0.94,0.53c-0.12,0.37-0.04,0.35-0.24,0.7c-0.15,0.27-0.18,0.17-0.25,0.55
			c-0.06,0.35-0.1,0.43-0.26,0.76c-0.15,0.32-0.09,0.31-0.12,0.62c-0.02,0.38,0.12,0.4-0.23,0.76c-0.24,0.24-0.53,0.41-0.63,0.74
			c-0.06,0.21,0.04,0.43-0.05,0.64c-0.15,0.37-0.55,0.31-0.73,0.55c-0.44,0.56,0.03,0.08-0.03,0.5c-0.06,0.33,0.02,0.18-0.13,0.5
			c-0.12,0.26-0.28,0.32-0.28,0.64c0,0.08,0.22,0.34,0.23,0.53v0.05c-4.94-0.99-13.1-2.41-24.2-3.62
			c-16.77-1.82-26.37-4.09-34.22-3.33c-0.29-0.78-0.72-1.53-1.36-2.25c-7.05-7.95-0.41-25.23-21.57-37.49
			C33.99-4.53,8.19-0.06,2.15,31.19c-0.27,1.4-0.5,2.85-0.69,4.36c-0.23,1.84-0.4,3.76-0.49,5.77c-0.1,1.81-0.13,3.7-0.1,5.65
			c0,1.07,0.04,2.16,0.08,3.27c0.01,0.33,0.03,0.65,0.05,0.98c0.1,1.95,0.24,3.86,0.44,5.73c0.13,1.34,0.29,2.66,0.47,3.96
			c0.12,0.86,0.25,1.72,0.39,2.56c0.33,2.09,0.72,4.12,1.17,6.09c0.35,1.61,0.74,3.18,1.17,4.71c0.35,1.29,0.73,2.55,1.13,3.79
			l2.69,7.37c0.74,1.78,1.52,3.5,2.33,5.15c1,2.03,2.04,3.95,3.12,5.78c0.64,1.1,1.3,2.16,1.96,3.19c1.36,2.08,2.75,4.01,4.14,5.79
			c1.28,1.63,2.57,3.14,3.84,4.53c7.31,7.94,14.37,12.06,17.76,12.68c8.29,1.51,15.76-6.9,2.9-10.31
			c-3.64-0.96-7.77-4.29-11.88-9.21c-0.92-1.09-1.84-2.26-2.74-3.51c-0.86-1.17-1.71-2.4-2.55-3.69c-0.96-1.47-1.9-3.01-2.83-4.61
			c-0.92-1.6-1.83-3.27-2.7-5c-0.98-1.9-1.91-3.87-2.8-5.88c-0.67-1.5-1.32-3.03-1.92-4.58C16.38,74,15.72,72.2,15.1,70.4
			c-0.6-1.76-1.15-3.53-1.67-5.31c-0.48-1.68-0.93-3.37-1.33-5.07c-0.28-1.18-0.53-2.36-0.76-3.53c-0.38-1.93-0.7-3.85-0.94-5.75
			c-0.13-1.01-0.24-2.01-0.33-3.01c-0.04-0.51-0.08-1.01-0.1-1.51c-0.09-1.43-0.11-2.82-0.05-4.18c0.06-1.64,0.2-3.23,0.44-4.76
			c0.24-1.61,0.57-3.16,1-4.64c5.13-18.37,22.88-27.12,36.88-17.67C62.9,24.85,62.56,45.5,62.08,51.8
			c-0.09,1.19-0.18,1.87-0.18,1.87c0.23,0.98,0.58,1.75,1.01,2.35c-0.04,0.14-0.08,0.28-0.11,0.42L62.64,56.71z"/>
		<path class="st14" d="M141.51,88.43"/>
		<path class="st14" d="M141.51,88.43"/>
	</g>
</g>
</svg>
